<svg xmlns="http://www.w3.org/2000/svg" viewBox="0 0 900 1200"><defs><linearGradient id="g" x1="0" y1="0" x2="1" y2="1"><stop stop-color="#113c43"/><stop offset="1" stop-color="#0f7068"/></linearGradient></defs><rect width="900" height="1200" fill="url(#g)"/><g opacity=".22" fill="none" stroke="#dff8f2" stroke-width="10"><path d="M445 230v-80M405 190h80"/><path d="M260 1060V575l190-210 190 210v485"/><path d="M330 1050V690c0-65 55-120 120-120s120 55 120 120v360"/><path d="M220 1060h460"/><path d="M348 520h204M300 626h300"/><path d="M418 1050V770c0-22 16-48 32-64 16 16 32 42 32 64v280"/><path d="M180 1070V700l-45 45v325M720 1070V700l45 45v325"/></g></svg>